<?xml version="1.0" encoding="UTF-8"?>
<svg width="1200pt" height="1200pt" version="1.1" viewBox="0 0 1200 1200" xmlns="http://www.w3.org/2000/svg">
 <path d="m411.2 512.04c21.402 5.3242 58.191 6.0898 112.61-19.902 25.109 14.824 54.297 23.484 85.57 23.484 31.188 0 60.301-8.6094 85.367-23.363 54.277 25.871 90.984 25.094 112.35 19.777 12.152-3.0234 18.184-16.812 12.402-27.918-30.223-58.074-29.496-139.87-29.496-139.87 0-99.883-80.973-180.86-180.86-180.86-99.883 0-180.86 80.973-180.86 180.86 0 0 0.72656 81.797-29.496 139.87-5.7773 11.109 0.25391 24.898 12.406 27.922zm55.086-120.19c117.79-2.207 171.85-56.492 196.58-105.49l87.555 64.77 8.5586 6.0234-1.4922 12.32c-10.957 72-73.098 127.4-148.11 127.4-67.043 0-123.94-44.223-143.09-105.02z"/>
 <path d="m358.83 442.76c4.6914 2.9766 9.9336 4.4688 15.203 4.4688 4.7422 0 9.5117-1.207 13.926-3.6328 9.3516-5.1562 15.164-14.973 15.164-25.609v-93.539c0-111.7 90.871-202.57 202.57-202.57h7.3594c111.7 0 202.57 90.875 202.57 202.57v93.539c0 10.637 5.8125 20.453 15.164 25.605 4.4141 2.4258 9.1797 3.6328 13.926 3.6328 5.2695 0 10.512-1.4922 15.203-4.4688 20.297-12.844 44.484-38.652 44.484-88.66 0-50.016-24.188-75.824-44.484-88.668-8.9062-5.6484-19.797-5.9609-29.129-0.83203-1.4102 0.77734-2.707 1.6875-3.9453 2.6641-25.277-94.402-111.52-164.13-213.79-164.13h-7.3594c-102.26 0-188.51 69.73-213.79 164.14-1.2383-0.97266-2.5391-1.8867-3.9453-2.6641-9.3047-5.1094-20.199-4.8164-29.129 0.83203-20.297 12.844-44.484 38.652-44.484 88.668 0 50.008 24.188 75.816 44.484 88.66zm475.54-152.55c0-3.8633 2.043-7.2969 5.4609-9.1719 0.91016-0.50391 2.707-1.3008 4.9219-1.3008 1.5547 0 3.3203 0.39453 5.1367 1.5391 23.73 15.023 35.762 39.523 35.762 72.832 0 33.297-12.031 57.797-35.762 72.82-4.3945 2.7812-8.5039 1.0977-10.059 0.23828-3.418-1.8789-5.4609-5.3125-5.4609-9.1758zm-465.52-8.9336c1.8164-1.1445 3.5781-1.5391 5.1367-1.5391 2.2148 0 4.0117 0.79688 4.9219 1.3008 3.418 1.875 5.4609 5.3086 5.4609 9.1719v127.78c0 3.8633-2.043 7.2969-5.4609 9.1719-1.5469 0.85156-5.6523 2.5352-10.059-0.23828-23.73-15.023-35.762-39.523-35.762-72.82 0.003906-33.305 12.031-57.805 35.762-72.828z"/>
 <path d="m967.42 748.85c-11.949-55.289-41.895-101.18-72.969-136.02-44.02-49.352-107.48-76.879-173.61-76.879-19.469 0-38.641 4.7617-55.848 13.875-34.934 18.5-76.758 18.5-111.69 0-17.203-9.1094-36.379-13.875-55.844-13.875-66.129 0-129.59 27.527-173.61 76.879-40.148 45.012-78.414 108.46-78.414 186.82 0 0 3.2852 128.85 110.27 128.85h21.199l4.3672 18.859c10.09 43.578 10.375 91.188 0.84375 134.89-2.6797 12.273 6.6719 23.883 19.234 23.883h415.61c12.562 0 21.914-11.609 19.234-23.883-9.5312-43.703-9.2461-91.312 0.84375-134.89l4.3672-18.859h21.199c61.133 0 88.406-42.074 100.55-78.137 11.004-32.652 11.555-67.84 4.2734-101.52zm-292.42-158.23c10.355 0 18.75 8.3945 18.75 18.75s-8.3945 18.75-18.75 18.75-18.75-8.3945-18.75-18.75 8.3945-18.75 18.75-18.75zm-65.625 9.375c0-5.1836 4.1992-9.375 9.375-9.375s9.375 4.1914 9.375 9.375v65.625c0 5.1836-4.1992 9.375-9.375 9.375s-9.375-4.1914-9.375-9.375zm223.3 219.84v97.75c-5.8242 8.3242-15.344 13.281-25.5 13.281h-4.7383l0.09375 0.74609c2.4727 19.332-7.3438 38.164-24.605 47.211l-0.29297 0.15234c-6.8516 3.5898-14.273 5.332-21.633 5.332-12.664 0-25.145-5.1562-34.195-14.914l-41.441-44.656c-3.5508-3.8203-8.5312-5.9922-13.746-5.9922h-114.95c-5.2148 0-10.195 2.1719-13.742 5.9961l-41.441 44.656c-9.0547 9.7578-21.531 14.914-34.195 14.914-7.3594 0-14.781-1.7422-21.633-5.332l-0.29297-0.15234c-17.262-9.0469-27.074-27.879-24.605-47.211l0.09375-0.74609h-16.906c-5.918 0-11.625-2.1914-16.02-6.1484-5.0508-4.543-7.9297-11.012-7.9297-17.797v-90.941l0.039062-0.046875c-15.031-6.8008-28.621-20.168-28.621-44.406 0-5.1836 4.1992-9.375 9.375-9.375s9.375 4.1914 9.375 9.375c0 18.07 11.77 25.816 22.207 29.168l19.816-24.477c6.9648-10.363 18.633-16.578 31.121-16.578h14.223c13.207-13.484 31.57-21.77 51.688-21.77h0.38281c9.6875 0 18.977 3.8477 25.828 10.699l0.10547 0.10547c6.8516 6.8438 16.141 10.691 25.828 10.691h105.56c9.6875 0 18.977-3.8477 25.828-10.699l0.10547-0.10547c6.8516-6.8516 16.141-10.699 25.828-10.699h0.38281c20.117 0 38.48 8.2891 51.688 21.77h9.0742c12.488 0 24.156 6.2148 31.121 16.578l17.715 26.352c11.137-1.7812 30.008-8.1719 30.008-31.047 0-5.1836 4.1992-9.375 9.375-9.375s9.375 4.1914 9.375 9.375c0 30.195-21.051 43.574-39.746 48.316z"/>
 <path d="m783.54 930.87h-0.097656c-27.59 0-52.734-15.828-64.664-40.711l-14.137-29.484c-3.0625-6.3867-9.4648-10.504-16.547-10.641l-9.7344-0.1875c-12.34-0.23828-22.219-10.309-22.219-22.648 0-10.828 7.6094-19.828 17.75-22.078h91.668l1.9141 0.011718v-0.011718h4.8438c1.6406 0 3.1055-0.53516 4.4453-1.2734 0.97266-0.53906 1.8359-1.1953 2.5586-2.0312 1.4219-1.6445 2.3672-3.7227 2.3672-6.0703 0-5.1797-4.1914-9.3672-9.3672-9.375h-0.007812-3.4961l-6.8867 0.003906c-8.875-17.719-27.109-29.75-47.863-29.75h-0.38281c-4.75 0-9.2148 1.8477-12.57 5.207-10.543 10.543-24.426 16.293-39.188 16.293h-105.56c-14.766 0-28.645-5.75-39.086-16.188-3.4609-3.4609-7.9258-5.3125-12.676-5.3125-21.047 0-39.352 12.031-48.242 29.75h-24.789c-5.1758 0-9.375 4.1914-9.375 9.375s4.1992 9.375 9.375 9.375l-0.074219 0.10547 0.40625-0.003907 0.015625-0.10547h107.34c10.137 2.2461 17.746 11.25 17.746 22.078 0 12.344-9.8789 22.414-22.219 22.648l-9.7344 0.1875c-7.082 0.13672-13.484 4.2539-16.547 10.641l-14.137 29.484c-11.184 23.328-34.023 38.52-59.566 40.348l-0.44531 3.4883c-1.4688 11.5 4.4414 22.844 14.711 28.227 4.2734 2.2383 8.7422 3.3438 13.219 3.3438 7.7383 0 15.195-3.25 20.453-8.918l41.441-44.656c7.0742-7.6211 17.094-11.992 27.492-11.992h114.95c10.395 0 20.414 4.3711 27.488 11.988l41.445 44.66c5.2578 5.668 12.715 8.918 20.453 8.918 4.4766 0 8.9492-1.1016 12.926-3.1875 10.562-5.5352 16.473-16.879 15.004-28.383z"/>
</svg>
